ground reactions
version=1
nRows=66
nColumns=19
inDegrees=no
endheader
time	ground_force_l_vx	ground_force_l_vy	ground_force_l_vz	ground_force_l_px	ground_force_l_py	ground_force_l_pz	ground_torque_l_x	ground_torque_l_y	ground_torque_l_z	ground_force_r_vx	ground_force_r_vy	ground_force_r_vz	ground_force_r_px	ground_force_r_py	ground_force_r_pz	ground_torque_r_x	ground_torque_r_y	ground_torque_r_z
0.008333	0.000000	-0.000000	-0.000000	0.000000	0.000000	-0.000000	0.000000	0.000000	0.000000	3.812575	229.539956	-4.905122	0.792871	0.000000	-0.409116	0.000000	-1.353359	0.000000
0.009375	0.000000	-0.000000	-0.000000	0.000000	0.000000	-0.000000	0.000000	0.000000	0.000000	4.301279	257.303952	-5.602879	0.792200	0.000000	-0.409281	0.000000	-1.465026	0.000000
0.010417	0.000000	-0.000000	-0.000000	0.000000	0.000000	-0.000000	0.000000	0.000000	0.000000	4.812114	285.650878	-6.359912	0.791537	0.000000	-0.409443	0.000000	-1.556761	0.000000
0.011458	0.000000	-0.000000	-0.000000	0.000000	0.000000	-0.000000	0.000000	0.000000	0.000000	5.337249	313.949185	-7.171354	0.790876	0.000000	-0.409600	0.000000	-1.620350	0.000000
0.012500	0.000000	-0.000000	-0.000000	0.000000	0.000000	-0.000000	0.000000	0.000000	0.000000	5.870887	341.728284	-8.032004	0.790210	0.000000	-0.409750	0.000000	-1.650239	0.000000
0.013542	0.000000	-0.000000	-0.000000	0.000000	0.000000	-0.000000	0.000000	0.000000	0.000000	6.408769	368.643236	-8.936074	0.789533	0.000000	-0.409891	0.000000	-1.643100	0.000000
0.014583	0.000000	-0.000000	-0.000000	0.000000	0.000000	-0.000000	0.000000	0.000000	0.000000	6.947804	394.447932	-9.877084	0.788839	0.000000	-0.410022	0.000000	-1.597481	0.000000
0.015625	0.000000	-0.000000	-0.000000	-0.000000	-0.000000	0.000000	0.000000	0.000000	0.000000	7.485785	418.974369	-10.847872	0.788124	0.000000	-0.410143	0.000000	-1.513498	0.000000
0.016667	0.000000	-0.000000	-0.000000	-0.000000	-0.000000	0.000000	0.000000	0.000000	0.000000	8.021178	442.116355	-11.840689	0.787384	0.000000	-0.410252	0.000000	-1.392557	0.000000
0.017708	0.000000	-0.000000	-0.000000	-0.000000	-0.000000	0.000000	0.000000	0.000000	0.000000	8.552962	463.816527	-12.847351	0.786617	0.000000	-0.410350	0.000000	-1.237101	0.000000
0.018750	0.000000	-0.000000	-0.000000	-0.000000	-0.000000	0.000000	0.000000	0.000000	0.000000	9.080496	484.055849	-13.859436	0.785822	0.000000	-0.410436	0.000000	-1.050382	0.000000
0.019792	0.000000	-0.000000	-0.000000	-0.000000	-0.000000	0.000000	0.000000	0.000000	0.000000	9.603434	502.845064	-14.868477	0.784999	0.000000	-0.410511	0.000000	-0.836249	0.000000
0.020833	0.000000	-0.000000	-0.000000	-0.000000	-0.000000	0.000000	0.000000	0.000000	0.000000	10.121641	520.217677	-15.866162	0.784150	0.000000	-0.410576	0.000000	-0.598959	0.000000
0.021875	0.000000	-0.000000	-0.000000	-0.000000	-0.000000	0.000000	0.000000	0.000000	0.000000	10.635143	536.224184	-16.844526	0.783276	0.000000	-0.410631	0.000000	-0.343011	0.000000
0.022917	0.000000	-0.000000	-0.000000	-0.000000	-0.000000	0.000000	0.000000	0.000000	0.000000	11.144080	550.927340	-17.796102	0.782382	0.000000	-0.410677	0.000000	-0.072996	0.000000
0.023958	0.000000	-0.000000	-0.000000	-0.000000	-0.000000	0.000000	0.000000	0.000000	0.000000	11.648677	564.398275	-18.714069	0.781469	0.000000	-0.410715	0.000000	0.206528	0.000000
0.025000	0.000000	-0.000000	-0.000000	-0.000000	-0.000000	0.000000	0.000000	0.000000	0.000000	12.149218	576.713344	-19.592351	0.780541	0.000000	-0.410746	0.000000	0.491142	0.000000
0.026042	0.000000	0.000000	-0.000000	0.000000	0.000000	-0.000000	0.000000	0.000000	0.000000	12.646030	587.951585	-20.425703	0.779601	0.000000	-0.410771	0.000000	0.776653	0.000000
0.027083	0.000000	0.000000	-0.000000	0.000000	0.000000	-0.000000	0.000000	0.000000	0.000000	13.139466	598.192701	-21.209756	0.778650	0.000000	-0.410790	0.000000	1.059163	0.000000
0.028125	0.000000	0.000000	-0.000000	0.000000	0.000000	-0.000000	0.000000	0.000000	0.000000	13.629903	607.515486	-21.941046	0.777693	0.000000	-0.410805	0.000000	1.335123	0.000000
0.029167	0.000000	0.000000	-0.000000	0.000000	0.000000	-0.000000	0.000000	0.000000	0.000000	14.117734	615.996612	-22.617015	0.776730	0.000000	-0.410816	0.000000	1.601367	0.000000
0.030208	0.000000	0.000000	-0.000000	0.000000	0.000000	-0.000000	0.000000	0.000000	0.000000	14.603363	623.709741	-23.235993	0.775764	0.000000	-0.410824	0.000000	1.855142	0.000000
0.031250	0.000000	0.000000	-0.000000	0.000000	0.000000	-0.000000	0.000000	0.000000	0.000000	15.087203	630.724883	-23.797163	0.774795	0.000000	-0.410829	0.000000	2.094113	0.000000
0.032292	0.000000	0.000000	-0.000000	0.000000	0.000000	-0.000000	0.000000	0.000000	0.000000	15.569677	637.107975	-24.300511	0.773825	0.000000	-0.410832	0.000000	2.316371	0.000000
0.033333	0.000000	0.000000	-0.000000	0.000000	0.000000	-0.000000	0.000000	0.000000	0.000000	16.051220	642.920630	-24.746768	0.772855	0.000000	-0.410834	0.000000	2.520426	0.000000
0.034375	0.000000	0.000000	-0.000000	0.000000	0.000000	-0.000000	0.000000	0.000000	0.000000	16.532270	648.220021	-25.137338	0.771885	0.000000	-0.410834	0.000000	2.705190	0.000000
0.035417	0.000000	0.000000	-0.000000	0.000000	0.000000	-0.000000	0.000000	0.000000	0.000000	17.013276	653.058878	-25.474229	0.770915	0.000000	-0.410834	0.000000	2.869962	0.000000
0.036458	0.000000	0.000000	-0.000000	-0.000000	-0.000000	0.000000	0.000000	0.000000	0.000000	17.494697	657.485569	-25.759970	0.769947	0.000000	-0.410833	0.000000	3.014399	0.000000
0.037500	0.000000	0.000000	-0.000000	-0.000000	-0.000000	0.000000	0.000000	0.000000	0.000000	17.976994	661.544241	-25.997533	0.768981	0.000000	-0.410831	0.000000	3.138493	0.000000
0.038542	0.000000	0.000000	-0.000000	-0.000000	-0.000000	0.000000	0.000000	0.000000	0.000000	18.460638	665.275011	-26.190259	0.768017	0.000000	-0.410829	0.000000	3.242536	0.000000
0.039583	0.000000	0.000000	-0.000000	-0.000000	-0.000000	0.000000	0.000000	0.000000	0.000000	18.946101	668.714182	-26.341773	0.767055	0.000000	-0.410828	0.000000	3.327091	0.000000
0.040625	0.000000	0.000000	-0.000000	-0.000000	-0.000000	0.000000	0.000000	0.000000	0.000000	19.433861	671.894489	-26.455913	0.766097	0.000000	-0.410826	0.000000	3.392955	0.000000
0.041667	0.000000	0.000001	-0.000000	-0.000000	-0.000000	0.000000	0.000000	0.000000	0.000000	19.924391	674.845342	-26.536660	0.765142	0.000000	-0.410824	0.000000	3.441128	0.000000
0.042708	0.000000	0.000001	-0.000000	-0.000000	-0.000000	0.000000	0.000000	0.000000	0.000000	20.418167	677.593087	-26.588068	0.764191	0.000000	-0.410823	0.000000	3.472777	0.000000
0.043750	0.000000	0.000001	-0.000000	-0.000000	-0.000000	0.000000	0.000000	0.000000	0.000000	20.915653	680.161254	-26.614204	0.763244	0.000000	-0.410822	0.000000	3.489205	0.000000
0.044792	0.000000	0.000001	-0.000000	-0.000000	-0.000000	0.000000	0.000000	0.000000	0.000000	21.417308	682.570802	-26.619091	0.762301	0.000000	-0.410821	0.000000	3.491819	0.000000
0.045833	0.000000	0.000001	-0.000000	-0.000000	-0.000000	0.000000	0.000000	0.000000	0.000000	21.923578	684.840358	-26.606657	0.761364	0.000000	-0.410821	0.000000	3.482095	0.000000
0.046875	0.000000	0.000002	-0.000000	-0.000000	-0.000000	0.000000	0.000000	0.000000	0.000000	22.434892	686.986435	-26.580691	0.760432	0.000000	-0.410820	0.000000	3.461557	0.000000
0.047917	0.000000	0.000002	-0.000000	0.000000	0.000000	-0.000000	0.000000	0.000000	0.000000	22.951661	689.023650	-26.544803	0.759505	0.000000	-0.410821	0.000000	3.431744	0.000000
0.048958	0.000000	0.000002	-0.000000	0.000000	0.000000	-0.000000	0.000000	0.000000	0.000000	23.474272	690.964915	-26.502387	0.758584	0.000000	-0.410821	0.000000	3.394187	0.000000
0.050000	0.000000	0.000003	-0.000000	0.000000	0.000000	-0.000000	0.000000	0.000000	0.000000	24.003086	692.821623	-26.456599	0.757668	0.000000	-0.410822	0.000000	3.350390	0.000000
0.051042	0.000000	0.000003	-0.000000	0.000000	0.000000	-0.000000	0.000000	0.000000	0.000000	24.538437	694.603815	-26.410328	0.756758	0.000000	-0.410823	0.000000	3.301806	0.000000
0.052083	0.000000	0.000004	-0.000000	0.000001	0.000000	-0.000000	0.000000	0.000000	0.000000	25.080625	696.320334	-26.366183	0.755853	0.000000	-0.410825	0.000000	3.249823	0.000000
0.053125	0.000000	0.000004	-0.000000	0.000001	0.000000	-0.000000	0.000000	0.000000	0.000000	25.629917	697.978967	-26.326479	0.754953	0.000000	-0.410827	0.000000	3.195747	0.000000
0.054167	0.000000	0.000005	-0.000000	0.000001	0.000000	-0.000000	0.000000	0.000000	0.000000	26.186545	699.586570	-26.293226	0.754058	0.000000	-0.410829	0.000000	3.140791	0.000000
0.055208	0.000001	0.000006	-0.000000	0.000001	0.000000	-0.000000	0.000000	0.000000	0.000000	26.750701	701.149189	-26.268131	0.753167	0.000000	-0.410832	0.000000	3.086068	0.000000
0.056250	0.000001	0.000007	-0.000000	0.000000	0.000000	-0.000000	0.000000	0.000000	0.000000	27.322538	702.672157	-26.252592	0.752281	0.000000	-0.410836	0.000000	3.032577	0.000000
0.057292	0.000001	0.000009	-0.000000	0.000000	0.000000	-0.000000	0.000000	0.000000	0.000000	27.902171	704.160191	-26.247708	0.751399	0.000000	-0.410840	0.000000	2.981204	0.000000
0.058333	0.000001	0.000011	-0.000001	-0.000000	-0.000000	0.000000	0.000000	0.000000	0.000000	28.489673	705.617476	-26.254284	0.750520	0.000000	-0.410845	0.000000	2.932718	0.000000
0.059375	0.000001	0.000013	-0.000001	-0.000001	-0.000000	0.000000	0.000000	0.000000	0.000000	29.085078	707.047734	-26.272841	0.749644	0.000000	-0.410850	0.000000	2.887765	0.000000
0.060417	0.000001	0.000016	-0.000001	-0.000001	-0.000000	0.000001	0.000000	0.000000	0.000000	29.688381	708.454296	-26.303632	0.748770	0.000000	-0.410856	0.000000	2.846878	0.000000
0.061458	0.000001	0.000019	-0.000001	-0.000001	-0.000000	0.000001	0.000000	0.000000	0.000000	30.299536	709.840151	-26.346658	0.747897	0.000000	-0.410863	0.000000	2.810469	0.000000
0.062500	0.000002	0.000023	-0.000001	-0.000002	-0.000000	0.000001	0.000000	0.000000	0.000000	30.918463	711.208005	-26.401682	0.747026	0.000000	-0.410869	0.000000	2.778844	0.000000
0.063542	0.000002	0.000028	-0.000001	-0.000002	-0.000000	0.000001	0.000000	0.000000	0.000000	31.545044	712.560315	-26.468258	0.746155	0.000000	-0.410877	0.000000	2.752199	0.000000
0.064583	0.000003	0.000034	-0.000002	-0.000002	-0.000000	0.000001	0.000000	0.000000	0.000000	32.179130	713.899335	-26.545744	0.745283	0.000000	-0.410884	0.000000	2.730631	0.000000
0.065625	0.000003	0.000041	-0.000002	-0.000002	-0.000000	0.000001	0.000000	0.000001	0.000000	32.820538	715.227140	-26.633332	0.744411	0.000000	-0.410892	0.000000	2.714146	0.000000
0.066667	0.000004	0.000050	-0.000002	-0.000002	-0.000000	0.000001	0.000000	0.000001	0.000000	33.469058	716.545660	-26.730067	0.743537	0.000000	-0.410900	0.000000	2.702666	0.000000
0.067708	0.000005	0.000060	-0.000003	-0.000001	-0.000000	0.000001	0.000000	0.000001	0.000000	34.124455	717.856697	-26.834875	0.742660	0.000000	-0.410908	0.000000	2.696037	0.000000
0.068750	0.000006	0.000072	-0.000004	0.000000	0.000000	-0.000000	0.000000	0.000001	0.000000	34.786467	719.161947	-26.946585	0.741780	0.000000	-0.410916	0.000000	2.694040	0.000000
0.069792	0.000007	0.000086	-0.000004	0.000001	0.000000	-0.000001	0.000000	0.000001	0.000000	35.454817	720.463010	-27.063957	0.740897	0.000000	-0.410923	0.000000	2.696397	0.000000
0.070833	0.000009	0.000102	-0.000005	0.000003	0.000000	-0.000002	0.000000	0.000001	0.000000	36.129205	721.761409	-27.185701	0.740009	0.000000	-0.410930	0.000000	2.702786	0.000000
0.071875	0.000011	0.000122	-0.000006	0.000005	0.000000	-0.000003	0.000000	0.000001	0.000000	36.809320	723.058591	-27.310505	0.739116	0.000000	-0.410936	0.000000	2.712845	0.000000
0.072917	0.000013	0.000145	-0.000007	0.000006	0.000000	-0.000004	0.000000	0.000002	0.000000	37.494838	724.355939	-27.437054	0.738218	0.000000	-0.410941	0.000000	2.726184	0.000000
0.073958	0.000015	0.000173	-0.000009	0.000007	0.000000	-0.000004	0.000000	0.000002	0.000000	38.185426	725.654775	-27.564053	0.737314	0.000000	-0.410945	0.000000	2.742392	0.000000
0.075000	0.000018	0.000207	-0.000011	0.000008	0.000000	-0.000005	0.000000	0.000003	0.000000	38.880747	726.956359	-27.690245	0.736405	0.000000	-0.410949	0.000000	2.761049	0.000000
0.076042	0.000022	0.000247	-0.000013	0.000008	0.000000	-0.000005	0.000000	0.000003	0.000000	39.580460	728.261895	-27.814426	0.735488	0.000000	-0.410951	0.000000	2.781727	0.000000
